<svg width="32" height="33" viewBox="0 0 32 33" fill="none" xmlns="http://www.w3.org/2000/svg">
<path d="M16 9.46335V28.13" stroke="currentColor" stroke-width="2.66667" stroke-linecap="round" stroke-linejoin="round"/>
<path d="M4.00008 24.13C3.64646 24.13 3.30732 23.9895 3.05727 23.7395C2.80722 23.4894 2.66675 23.1503 2.66675 22.7967V5.46334C2.66675 5.10972 2.80722 4.77058 3.05727 4.52053C3.30732 4.27048 3.64646 4.13 4.00008 4.13H10.6667C12.0812 4.13 13.4378 4.69191 14.438 5.6921C15.4382 6.6923 16.0001 8.04885 16.0001 9.46334C16.0001 8.04885 16.562 6.6923 17.5622 5.6921C18.5624 4.69191 19.9189 4.13 21.3334 4.13H28.0001C28.3537 4.13 28.6928 4.27048 28.9429 4.52053C29.1929 4.77058 29.3334 5.10972 29.3334 5.46334V22.7967C29.3334 23.1503 29.1929 23.4894 28.9429 23.7395C28.6928 23.9895 28.3537 24.13 28.0001 24.13H20.0001C18.9392 24.13 17.9218 24.5514 17.1717 25.3016C16.4215 26.0517 16.0001 27.0691 16.0001 28.13C16.0001 27.0691 15.5787 26.0517 14.8285 25.3016C14.0784 24.5514 13.0609 24.13 12.0001 24.13H4.00008Z" stroke="currentColor" stroke-width="2.66667" stroke-linecap="round" stroke-linejoin="round"/>
</svg>
