<svg width="30" height="28" viewBox="0 0 30 28" fill="none" xmlns="http://www.w3.org/2000/svg">
<path d="M2.99999 22C2.64637 22 2.30723 21.8595 2.05718 21.6095C1.80713 21.3594 1.66666 21.0203 1.66666 20.6667V3.33333C1.66666 2.97971 1.80713 2.64057 2.05718 2.39052C2.30723 2.14048 2.64637 2 2.99999 2H9.66666C11.0811 2 12.4377 2.5619 13.4379 3.5621C14.4381 4.56229 15 5.91885 15 7.33333C15 5.91885 15.5619 4.56229 16.5621 3.5621C17.5623 2.5619 18.9188 2 20.3333 2H27C27.3536 2 27.6928 2.14048 27.9428 2.39052C28.1928 2.64057 28.3333 2.97971 28.3333 3.33333V20.6667C28.3333 21.0203 28.1928 21.3594 27.9428 21.6095C27.6928 21.8595 27.3536 22 27 22H19C17.9391 22 16.9217 22.4214 16.1716 23.1716C15.4214 23.9217 15 24.9391 15 26C15 24.9391 14.5786 23.9217 13.8284 23.1716C13.0783 22.4214 12.0609 22 11 22H2.99999Z" stroke="currentColor" stroke-width="2.66667" stroke-linecap="round" stroke-linejoin="round"/>
</svg>
