<svg viewBox="0 0 21 20" fill="none" xmlns="http://www.w3.org/2000/svg">
<path d="M10.5001 18.3334C15.1025 18.3334 18.8334 14.6025 18.8334 10.0001C18.8334 5.39771 15.1025 1.66675 10.5001 1.66675C5.89771 1.66675 2.16675 5.39771 2.16675 10.0001C2.16675 14.6025 5.89771 18.3334 10.5001 18.3334Z" stroke="currentColor" stroke-width="1.66667" stroke-linecap="round" stroke-linejoin="round"/>
<path d="M10.5 15C13.2614 15 15.5 12.7614 15.5 10C15.5 7.23858 13.2614 5 10.5 5C7.73858 5 5.5 7.23858 5.5 10C5.5 12.7614 7.73858 15 10.5 15Z" stroke="currentColor" stroke-width="1.66667" stroke-linecap="round" stroke-linejoin="round"/>
<path d="M10.4999 11.6666C11.4204 11.6666 12.1666 10.9204 12.1666 9.99992C12.1666 9.07944 11.4204 8.33325 10.4999 8.33325C9.57944 8.33325 8.83325 9.07944 8.83325 9.99992C8.83325 10.9204 9.57944 11.6666 10.4999 11.6666Z" stroke="currentColor" stroke-width="1.66667" stroke-linecap="round" stroke-linejoin="round"/>
</svg>
